<svg xmlns="http://www.w3.org/2000/svg" xmlns:xlink="http://www.w3.org/1999/xlink" width="98" height="98" viewBox="0 0 98 98"><defs><path id="a" d="M496.36 621.31h28.8v25.44h-28.8zm15.9 24.07c-.67-2.54-2.38-8.16-5.65-11.43-.38-.38-.75-.57-1.12-.57-2.42 0-5.22 7.68-6.45 12zm10.76 0c-1.24-3.2-2.79-6.62-4.46-6.62-.1 0-.22.02-.34.05-2.12.54-3.6 5.04-4.05 6.57zm-25.28 0h.04c1.07-3.82 4.07-13.21 7.71-13.21.7 0 1.37.31 1.98.93 2.84 2.84 4.57 7.07 5.51 10.12l.29.9.32-.88c.82-2.26 2.25-5.07 4.34-5.6.2-.06.43-.09.63-.09 2.37 0 3.9 3.22 5.23 6.53v-21.44h-26.05zm18.6-12.88a3.36 3.36 0 0 1 0-6.71 3.36 3.36 0 0 1 0 6.7zm0-5.8a2.45 2.45 0 0 0 0 4.9 2.45 2.45 0 0 0 0-4.9zm27.69 9.4l-11.1 31.7-31.75-11.02.7-1.97.63.08-5.3-1.4.31-1.19h-3.55v-33.63h33.64v8.1l10.75 2.86-1.1 4.11zm-13.16 23.7c-.02-.6-.06-1.2-.1-1.8l-.42 1.63zm.76-4.98c.23 1.23.34 2.63.4 4.03l7.07-20.24-2.87-1zm-4.6-.53c-.07-.67-.15-1.33-.25-1.99h-7.2zm.58-4.17c.25.98.37 2.04.5 3.1l5.52-20.7-6.02-1.6zm-32.26.8h30.93V620h-30.93zm3.49 1.62l29.91 7.96 7.96-29.92-9.1-2.42v1.37l7.7 2.06-6.54 24.57-14.53-3.86h-15.33zm43.48-15.62l-5.4-1.88-.34 1.28 4.25 1.49-8.37 24-2.48-.85-.3 1.11-26.48-7-.31.89 29.23 10.2zM519 595.76a47.52 47.52 0 0 0-47.47 47.47A47.52 47.52 0 0 0 519 690.7a47.52 47.52 0 0 0 47.47-47.47A47.52 47.52 0 0 0 519 595.76s26.17 0 0 0zm0-1.3a48.77 48.77 0 1 1 0 97.54 48.77 48.77 0 0 1 0-97.54z"/></defs><use xlink:href="#a" transform="translate(-470 -594)"/></svg>