<svg xmlns="http://www.w3.org/2000/svg" xmlns:xlink="http://www.w3.org/1999/xlink" width="25" height="40" viewBox="0 0 25 40"><defs><path id="a" d="M618.32 517.68l-14.34 14.62a2.3 2.3 0 0 1-3.3 0 2.41 2.41 0 0 1 0-3.37l12.68-12.94-12.69-12.93a2.41 2.41 0 0 1 0-3.37 2.3 2.3 0 0 1 3.3 0l14.35 14.62a2.4 2.4 0 0 1 0 3.37z"/><mask id="c" width="2.3" height="2.18" x="-1.15" y="-1.09"><path fill="#fff" d="M596 496h26v40h-26z"/><use xlink:href="#a"/></mask><filter id="b" width="46" height="60" x="586" y="486" filterUnits="userSpaceOnUse"><feOffset in="SourceGraphic" result="FeOffset1043Out"/><feGaussianBlur in="FeOffset1043Out" result="FeGaussianBlur1044Out" stdDeviation="0 0"/></filter></defs><g transform="translate(-597 -496)"><g filter="url(#b)"><use fill="none" stroke="#000" stroke-opacity=".5" stroke-width="6" mask="url(&amp;quot;#c&amp;quot;)" xlink:href="#a"/><use fill-opacity=".5" xlink:href="#a"/></g><use fill="#fff" xlink:href="#a"/></g></svg>