<svg xmlns="http://www.w3.org/2000/svg" xmlns:xlink="http://www.w3.org/1999/xlink" width="98" height="98" viewBox="0 0 98 98"><defs><path id="m61ka" d="M832.25 624.99v17.81h-1.42v-15.4l-32.66 32.66h15.4v1.42h-17.82v-17.82h1.42v15.4l32.66-32.66h-15.4V625zm5.82-6.16v48.8h-48.14v-48.8zm-46.4 1.48v45.76h44.97V620.3zM814 595.76a47.52 47.52 0 0 0-47.47 47.47A47.52 47.52 0 0 0 814 690.7a47.52 47.52 0 0 0 47.47-47.47A47.52 47.52 0 0 0 814 595.76s26.17 0 0 0zm0-1.3a48.77 48.77 0 1 1 0 97.54 48.77 48.77 0 0 1 0-97.54z"/></defs><g><g transform="translate(-765 -594)"><use xlink:href="#m61ka"/></g></g></svg>