<svg xmlns="http://www.w3.org/2000/svg" xmlns:xlink="http://www.w3.org/1999/xlink" width="98" height="98" viewBox="0 0 98 98"><defs><path id="qxrma" d="M1133.04 618.9v48.73h-48.08v-48.74h6.28V615h1.76v3.9h7.05V615h1.76v3.9h7.35V615h1.76v3.9h7.07V615h1.76v3.9h6.35V615h1.76v3.9zm-1.6 13.43h-44.88v33.7h44.88zm0-11.84h-3.58v4.06h-1.76v-4.06h-6.35v4.06H1118v-4.06h-7.07v4.06h-1.77v-4.06h-7.34v4.06h-1.76v-4.06H1093v4.06h-1.76v-4.06h-4.68v10.25h44.88zm-22.02 21.58h-.04l-2 1.08-.3-1.18 2.51-1.35h1.33v15.61h2.59v1.5h-6.68v-1.5h2.59zm-.42-46.3a47.52 47.52 0 0 0-47.47 47.46A47.52 47.52 0 0 0 1109 690.7a47.52 47.52 0 0 0 47.47-47.47 47.52 47.52 0 0 0-47.47-47.47s26.17 0 0 0zm0-1.3a48.77 48.77 0 1 1 0 97.53 48.77 48.77 0 0 1 0-97.54z"/></defs><g><g transform="translate(-1060 -594)"><use xlink:href="#qxrma"/></g></g></svg>