<svg xmlns="http://www.w3.org/2000/svg" xmlns:xlink="http://www.w3.org/1999/xlink" width="98" height="98" viewBox="0 0 98 98"><defs><path id="uqwwa" d="M1433.77 640.36c.28.32.26.8-.06 1.1l-7.2 6.46a.77.77 0 0 1-1.07-.03l-1.4-1.42-7.22 7.66 4 4c.3.3.3.79 0 1.09l-2.7 2.69a.77.77 0 0 1-1.08 0l-.32-.32-2.15 2.15a.77.77 0 0 1-1.08 0l-.32-.32-2.15 2.15a.76.76 0 0 1-1.08 0l-.32-.32-2.15 2.15a.77.77 0 0 1-1.08 0l-1.42-1.4-1.4 1.4a.76.76 0 0 1-1.07 0l-2.7-2.69-2.69-2.69-2.69-2.66-2.7-2.7a.77.77 0 0 1 0-1.08l1.32-1.33-7.18-7.09-1.3 1.33a.76.76 0 0 1-.55.22.77.77 0 0 1-.51-.2l-7.21-6.46a.77.77 0 0 1 1.03-1.15l2.4 2.16 13.67-13.4-9.33-8.84a.77.77 0 0 1-.03-1.09c.29-.3.78-.32 1.08-.03l13.84 13.1a.76.76 0 0 1 .02 1.09l-1.33 1.34 3.95 3.9 2.12-2.1a.74.74 0 0 1 .62-.22l5.22.56 2.7-2.84-1.22-1.24a.76.76 0 0 1-.22-.55c0-.21.1-.4.24-.55l13.84-13.09a.77.77 0 1 1 1.05 1.12l-13.27 12.55 13.35 13.52 4.01-3.6-8.1-8.04a.77.77 0 1 1 1.08-1.1l8.17 8.1 1.5-1.35a.77.77 0 0 1 1.09.06zm-38.83.43c0-.74-.25-1.45-.68-2.02l-4.7 4.7a3.36 3.36 0 0 0 5.38-2.68zm.41-3.11c.22.26.4.55.56.85l1.41-1.45-.7-.68zm1.98-4.31l-2.82-2.67-13.64 13.4 3.1 2.79zm-10.38 12.71l.76.75.89-.92.75-.77a4.8 4.8 0 0 1-.88-.58zm6.4 10.04l1.6 1.6.8-.8-1.61-1.6zm5.1 3.46l-1.6-1.58-.8.8 1.6 1.6zm.29 1.9l1.6 1.6.83-.82-1.62-1.6zm5.14 3.45l-1.62-1.6-.83.84 1.6 1.6zm15.3-6.26l-14.19-14.2c-7.3 7.4-11.5 4.22-11.68 4.08a.77.77 0 0 1-.06-1.15l7.24-7.19-2.07-2.05-1.99 2.03a4.9 4.9 0 0 1-5.44 5.46l-1.29 1.33-.9.92 18.12 17.88 1.62-1.61-1.74-1.74-1.77-1.76a.76.76 0 0 1 0-1.09c.3-.3.8-.3 1.1 0l.93.94 3.42 3.42 1.6-1.6-2.55-2.56-.94-.95a.76.76 0 0 1 0-1.08c.3-.3.78-.3 1.08 0l4.36 4.36 1.6-1.6-3.5-3.5a.77.77 0 0 1 0-1.1c.3-.3.8-.3 1.1 0l.94.95 3.1 3.1.31.32zm3.69-13.2l-9.69-9.68-4.41 4.62a.77.77 0 1 1-1.11-1.07l.55-.57-3.68-.4-9.4 9.32c1.43.33 4.58.18 9.3-4.84a.76.76 0 0 1 .54-.24c.23 0 .4.08.55.23l10.21 10.2zm-5.8-14.47a2.4 2.4 0 1 1 4.8 0 2.4 2.4 0 0 1-4.8 0zm3.27 0a.86.86 0 1 0-1.73 0 .86.86 0 0 0 1.73 0zM1405 595.76a47.52 47.52 0 0 0-47.47 47.47A47.52 47.52 0 0 0 1405 690.7a47.52 47.52 0 0 0 47.47-47.47 47.52 47.52 0 0 0-47.47-47.47s26.17 0 0 0zm0-1.3a48.77 48.77 0 1 1 0 97.54 48.77 48.77 0 0 1 0-97.54z"/></defs><g><g transform="translate(-1356 -594)"><use xlink:href="#uqwwa"/></g></g></svg>